<mxfile host="app.diagrams.net" modified="2023-05-02T02:55:38.077Z" agent="Mozilla/5.0 (Macintosh; Intel Mac OS X 10_15_7) AppleWebKit/605.1.15 (KHTML, like Gecko) Version/16.4 Safari/605.1.15" etag="FYlyW9QkiMGVl39XpgOt" version="21.2.3" type="github">
  <diagram name="Page-1" id="Umyos6cTqy8Y_GRD97wS">
    <mxGraphModel dx="2261" dy="804" grid="1" gridSize="10" guides="1" tooltips="1" connect="1" arrows="1" fold="1" page="1" pageScale="1" pageWidth="827" pageHeight="1169" math="0" shadow="0">
      <root>
        <mxCell id="0" />
        <mxCell id="1" parent="0" />
        <mxCell id="yHd6TG3PewnYxjIQtVdX-1" value="&lt;b&gt;UBER&lt;/b&gt;" style="text;html=1;align=center;verticalAlign=middle;resizable=0;points=[];autosize=1;strokeColor=none;fillColor=none;" vertex="1" parent="1">
          <mxGeometry x="370" y="20" width="60" height="30" as="geometry" />
        </mxCell>
        <mxCell id="yHd6TG3PewnYxjIQtVdX-2" value="Functional requirements:&lt;br&gt;* both rider and driver log into the system&lt;br&gt;* rider see nearby drivers&lt;br&gt;* rider click on button and matching is being started for nearby drivers&lt;br&gt;* driver accept/reject a ride&lt;br&gt;* when a rider is started both rider and driver see current location&lt;br&gt;&lt;br&gt;* Matching&lt;br&gt;* send a request by a rider&lt;br&gt;* accept/reject by driver" style="text;html=1;align=center;verticalAlign=middle;resizable=0;points=[];autosize=1;strokeColor=none;fillColor=none;" vertex="1" parent="1">
          <mxGeometry x="-160" y="70" width="390" height="150" as="geometry" />
        </mxCell>
        <mxCell id="yHd6TG3PewnYxjIQtVdX-3" value="Non functional requirements&lt;br&gt;* Low latency (&amp;lt; 200 ms)&lt;br&gt;* Availability &amp;gt; Consistency&lt;br&gt;Scalability&lt;br&gt;&lt;br&gt;Riders:&lt;br&gt;* 100M users in total&lt;br&gt;* 10M DAU&amp;nbsp;&lt;br&gt;* each user makes 2 rides daily&amp;nbsp;&lt;br&gt;&lt;br&gt;10M * 2 -&amp;gt; 20M rides a day -&amp;gt; 20M / 86200 -&amp;gt; 20K / 100 -&amp;gt; 2K/10 -&amp;gt; 200 RPS&amp;nbsp;&lt;br&gt;&lt;br&gt;Peak hours = 2X -&amp;gt; 400RPS in peak hours&lt;br&gt;&lt;br&gt;To calculate RPS one server can handle RPS = numberOfCores / (1 / taskDuration) = 64 cores / (1/200) -&amp;gt;&lt;br&gt;12800 RPS ???&lt;br&gt;&lt;br&gt;&lt;br&gt;Drivers:&amp;nbsp;&lt;br&gt;* 10M users in total&lt;br&gt;* 1M DAU&lt;br&gt;* Shift is 6 hours&lt;br&gt;* each driver sends current location once in 5 sec&lt;br&gt;&lt;br&gt;1M / 4 -&amp;gt; &amp;nbsp;250K / 86200 -&amp;gt; 250K / 100K -&amp;gt; 2.5 RPS / 5 -&amp;gt; &amp;nbsp;0.5 RPS -&amp;gt; 1 RPS in rush hours" style="text;html=1;align=center;verticalAlign=middle;resizable=0;points=[];autosize=1;strokeColor=none;fillColor=none;" vertex="1" parent="1">
          <mxGeometry x="225" y="40" width="590" height="360" as="geometry" />
        </mxCell>
      </root>
    </mxGraphModel>
  </diagram>
</mxfile>
